<svg id="logo" xmlns="http://www.w3.org/2000/svg" width="168" height="37" viewBox="0 0 168 37">
  <defs>
    <style>
      .cls-1 {
        fill: #fff;
      }

      .cls-1, .cls-2 {
        fill-rule: evenodd;
      }

      .cls-2 {
        fill: #16ac9f;
      }
    </style>
  </defs>
  <path class="cls-1" d="M368.6,63.728a23.72,23.72,0,0,1-5.368.6q-11.138,0-11.137-10.8,0-10,11.137-10a23.749,23.749,0,0,1,5.368.6v4.158a22,22,0,0,0-4.974-.595q-6.261,0-6.264,5.841,0,6.643,6.264,6.639a22.432,22.432,0,0,0,4.974-.595v4.158h0Zm1.457-5.882q0-6.2,9.068-6.2a23.236,23.236,0,0,1,4.255.4V50.476c0-1.859-1.351-2.792-4.038-2.792a33.068,33.068,0,0,0-7.595.993V44.513a33.4,33.4,0,0,1,7.595-.987q9.3,0,9.305,6.849V64.323h-3.061l-1.873-1.86a10.421,10.421,0,0,1-6,1.86q-7.656,0-7.656-6.477h0Zm13.323-2.238a21.883,21.883,0,0,0-4.255-.4q-3.8,0-3.8,2.576c0,1.852,1.059,2.772,3.183,2.772a8.158,8.158,0,0,0,4.873-1.623V55.608h0Zm8.908-15.449h3.9l0.8,3.367h5.246v4.159H397.56v9.567q0,2.91,2.525,2.914h2.144v4.158H397.54q-5.253,0-5.254-5.606V40.159h0Zm11.5,17.687q0-6.2,9.067-6.2a23.239,23.239,0,0,1,4.256.4V50.476c0-1.859-1.351-2.792-4.039-2.792a33.053,33.053,0,0,0-7.594.993V44.513a33.388,33.388,0,0,1,7.594-.987q9.306,0,9.305,6.849V64.323h-3.061l-1.873-1.86a10.416,10.416,0,0,1-6,1.86q-7.656,0-7.656-6.477h0Zm13.323-2.238a21.886,21.886,0,0,0-4.256-.4q-3.8,0-3.8,2.576c0,1.852,1.058,2.772,3.183,2.772a8.16,8.16,0,0,0,4.873-1.623V55.608h0ZM431.591,36V64.323h-5.273V36h5.273Zm1.457,7.524h5.586L443.907,58.5l5.145-14.976h5.49l-8.666,21.412A14.6,14.6,0,0,1,438.5,73l-2.545-3.584a9.725,9.725,0,0,0,5.09-4.969l-8-20.919h0ZM456,63.336V58.975a21.582,21.582,0,0,0,8.036,1.386q3.4,0,3.4-2.177c0-1.386-.767-2.082-2.287-2.082h-3.781q-6.362,0-6.359-6.24,0-6.532,9.284-6.532a22.835,22.835,0,0,1,7.418,1.183v4.361a20.179,20.179,0,0,0-7.56-1.386c-2.85,0-4.269.723-4.269,2.177q0,2.08,2.484,2.082h3.38q6.952,0,6.957,6.234,0,6.541-8.864,6.538A24.2,24.2,0,0,1,456,63.336h0Zm19.055-23.176h3.9l0.8,3.367H485v4.159h-4.669v9.567q0,2.91,2.524,2.914H485v4.158h-4.69q-5.253,0-5.253-5.606V40.159Z" transform="translate(-317 -36)"/>
  <path id="Shape_1_copy" data-name="Shape 1 copy" class="cls-2" d="M329.863,38.249l15.593,15.534L329.863,69.317,325.6,65.07a11.6,11.6,0,0,0,8.746-8.37h-5.839a6.1,6.1,0,1,1,0-5.833h5.839A11.594,11.594,0,0,0,325.6,42.5Z" transform="translate(-317 -36)"/>
</svg>
